<?xml version="1.0" encoding="utf-8"?>
<!-- Generator: Adobe Illustrator 15.1.0, SVG Export Plug-In . SVG Version: 6.00 Build 0)  -->
<!DOCTYPE svg PUBLIC "-//W3C//DTD SVG 1.1//EN" "http://www.w3.org/Graphics/SVG/1.1/DTD/svg11.dtd">
<svg version="1.1" xmlns="http://www.w3.org/2000/svg" xmlns:xlink="http://www.w3.org/1999/xlink" x="0px" y="0px" width="382px"
	 height="372px" viewBox="0 0 382 372" enable-background="new 0 0 382 372" xml:space="preserve">
<g id="background">
	<path fill-rule="evenodd" clip-rule="evenodd" fill="#666666" d="M354.32,291.063c-32.717-23.273-82.896-10.911-114.166-52.358
		c0,0-11.637-13.09,14.542-45.087c26.18-31.997,28.358-82.902,21.813-122.17C269.971,32.179,232.883,6,194.341,6
		s-75.63,26.179-82.168,65.447c-6.545,39.269-4.366,90.174,21.814,122.17c26.178,31.997,14.542,45.087,14.542,45.087
		c-31.271,41.447-81.442,29.085-114.167,52.358C1.639,314.328,9.636,367.419,9.636,367.419h184.705h184.706
		C379.047,367.419,387.043,314.328,354.32,291.063z"/>
</g>
<g id="icon">
</g>
</svg>
