<svg xmlns="http://www.w3.org/2000/svg" width="388" height="388" viewBox="0 0 388 388"><g fill="none" stroke="#666" stroke-width="15" stroke-linejoin="round" stroke-miterlimit="10"><path d="M13 226.908L152.863 284.5 194 259.818v-8.226L54.137 194 13 218.682zm362 0L235.137 284.5 194 259.818v-8.226L333.863 194 375 218.682zM70.591 187.227L54.137 194 13 169.318v-8.227l57.587-23.71m246.821 48.392L333.863 194 375 169.318v-8.227l-57.592-23.71M194 259.818V375"/><path d="M333.863 243.363v74.045L194 375 54.137 317.408v-74.045M194 111.727v139.865M70.591 202.227V62.363L194 13l123.408 49.363v139.864M194 111.727L70.591 62.363m246.817 0L194 111.727"/></g></svg>