<svg xmlns="http://www.w3.org/2000/svg" width="382" height="372" viewBox="0 0 382 372"><path fill-rule="evenodd" clip-rule="evenodd" fill="#666" d="M354.32 291.063c-32.717-23.273-82.896-10.911-114.166-52.358 0 0-11.637-13.09 14.542-45.087 26.18-31.997 28.358-82.902 21.813-122.17C269.971 32.179 232.883 6 194.341 6s-75.63 26.179-82.168 65.447c-6.545 39.269-4.366 90.174 21.814 122.17 26.178 31.997 14.542 45.087 14.542 45.087-31.271 41.447-81.442 29.085-114.167 52.358-32.723 23.266-24.726 76.357-24.726 76.357h369.411s7.996-53.091-24.727-76.356z"/></svg>